<svg width="24" height="24" viewBox="0 0 24 24" fill="none" xmlns="http://www.w3.org/2000/svg">
<path fill-rule="evenodd" clip-rule="evenodd" d="M3 6C3 4.34315 4.34315 3 6 3H18C19.6569 3 21 4.34315 21 6V18C21 19.6569 19.6569 21 18 21H6C4.34315 21 3 19.6569 3 18V6ZM7 8C7 7.44772 7.44772 7 8 7H8.00195C8.55424 7 9.00195 7.44772 9.00195 8C9.00195 8.55228 8.55424 9 8.00195 9H8C7.44772 9 7 8.55228 7 8ZM14.5027 11.1915C14.1478 10.9783 13.653 10.8896 13.1961 10.981C12.9503 11.0302 12.6296 11.234 12.3414 11.5583C12.2064 11.7102 12.1054 11.8594 12.0436 11.9759C12.0206 12.0193 12.0073 12.0499 12 12.0684V16C12 16.5523 11.5523 17 11 17C10.4477 17 10 16.5523 10 16V10C10 9.44772 10.4477 9 11 9C11.3341 9 11.63 9.16388 11.8116 9.41564C12.1084 9.23589 12.4413 9.09236 12.8039 9.01985C13.7277 8.83508 14.7328 8.99645 15.5329 9.47722C16.3559 9.97184 17 10.8394 17 12.0003V16.0003C17 16.5526 16.5523 17.0003 16 17.0003C15.4477 17.0003 15 16.5526 15 16.0003V12.0003C15 11.6613 14.8344 11.3909 14.5027 11.1915ZM8 10C8.55228 10 9 10.4477 9 11V16C9 16.5523 8.55228 17 8 17C7.44772 17 7 16.5523 7 16V11C7 10.4477 7.44772 10 8 10Z" fill="#3A3C3C"/>
</svg>
