<svg width="173" height="40" viewBox="0 0 173 40" fill="none" xmlns="http://www.w3.org/2000/svg">
<path d="M19.2083 10.6986C19.2083 10.7133 19.2083 10.728 19.2083 10.7428C19.2231 10.7428 19.2379 10.7428 19.2526 10.7428H27.9062V17.2415H10C10 16.3278 10 15.4142 10 14.5005C10 13.5869 10 12.6732 10 11.7596C10 10.8312 10 9.91017 10 8.99652C10 8.08287 10 7.16922 10 6.25557C10 5.32718 10 4.39879 10 3.4704C10 2.52728 10 1.59152 10 0.663134H19.2083C19.2083 1.5031 19.2083 2.34307 19.2083 3.18304C19.2083 4.00828 19.2083 4.84088 19.2083 5.68085C19.2083 6.52082 19.2083 7.36079 19.2083 8.20076C19.2083 9.02599 19.2083 9.85859 19.2083 10.6986Z" fill="#011613"/>
<path d="M47.2956 6.23346H37.6435C37.6287 6.23346 37.6213 6.23346 37.6213 6.23346V7.44921C37.6213 7.46394 37.6213 7.47868 37.6213 7.49342C37.6361 7.49342 37.6435 7.49342 37.6435 7.49342H46.9627V10.6101H37.6435C37.6435 10.6101 37.6361 10.6101 37.6213 10.6101C37.6213 10.6101 37.6213 10.6175 37.6213 10.6323C37.6213 10.6323 37.6213 10.6396 37.6213 10.6544V11.8922C37.6361 11.8922 37.6435 11.8922 37.6435 11.8922H47.4287V17.2415H28.635C28.635 16.372 28.635 15.5026 28.635 14.6332C28.635 13.749 28.635 12.8722 28.635 12.0027C28.635 11.1333 28.635 10.2638 28.635 9.3944C28.635 8.51022 28.635 7.63341 28.635 6.76397C28.635 5.87979 28.635 5.00298 28.635 4.13354C28.635 3.55882 28.635 2.9841 28.635 2.40939C28.635 1.81994 28.635 1.23785 28.635 0.663134H47.2956V6.23346Z" fill="#011613"/>
<path d="M48.2667 17.2415C48.2667 16.1805 48.2667 15.1195 48.2667 14.0584C48.2667 12.9974 48.2667 11.9364 48.2667 10.8754C48.2667 9.81439 48.2667 8.75337 48.2667 7.69236C48.2667 6.63134 48.2667 5.57033 48.2667 4.50931C48.2667 3.86091 48.2667 3.21989 48.2667 2.58622C48.2667 1.93783 48.2667 1.2968 48.2667 0.663134H57.4749C57.4749 2.09256 57.4749 3.52198 57.4749 4.9514C57.4749 6.36609 57.4749 7.78814 57.4749 9.21757C57.4749 10.1017 57.4749 10.9933 57.4749 11.8922C57.4749 12.7764 57.4749 13.6679 57.4749 14.5668C57.4749 15.451 57.4749 16.3426 57.4749 17.2415H48.2667Z" fill="#011613"/>
<path d="M70.3682 0C73.0013 0 75.1758 0.324199 76.8917 0.972596C78.6076 1.62099 79.9241 2.50517 80.8412 3.62513C81.7584 4.73036 82.3353 5.98294 82.572 7.38289L72.9865 9.63755C73.1492 9.07757 73.1566 8.59127 73.0087 8.17865C72.8607 7.76604 72.5649 7.44184 72.1211 7.20606C71.6773 6.97028 71.0857 6.85239 70.346 6.85239C69.6508 6.85239 69.0961 6.94817 68.6819 7.13975C68.2825 7.33132 67.994 7.57447 67.8165 7.86919C67.6538 8.14918 67.5725 8.45128 67.5725 8.77548C67.5725 9.01126 67.6242 9.23967 67.7278 9.46071C67.8313 9.66702 67.994 9.85859 68.2159 10.0354C68.4378 10.2123 68.7263 10.3523 69.0813 10.4554C69.4363 10.5586 69.8579 10.6101 70.346 10.6101C71.1004 10.6101 71.6847 10.5291 72.0989 10.367C72.5131 10.1902 72.809 9.94701 72.9865 9.63755C72.7498 10.507 72.5131 11.3838 72.2764 12.268C72.0398 13.1522 71.7957 14.0437 71.5442 14.9426C71.3075 15.8268 71.0709 16.7036 70.8342 17.5731C70.4348 17.6467 70.0428 17.6983 69.6582 17.7278C69.2884 17.772 68.8446 17.7941 68.3269 17.7941C67.2027 17.7941 66.1672 17.6909 65.2205 17.4846C64.2886 17.2783 63.4454 16.991 62.691 16.6226C61.9366 16.2394 61.2709 15.7826 60.694 15.2521C60.1319 14.7216 59.6585 14.1321 59.2739 13.4837C58.9041 12.8206 58.6231 12.1133 58.4308 11.3617C58.2385 10.5954 58.1423 9.79965 58.1423 8.97442C58.1423 8.29655 58.2089 7.64078 58.342 7.00712C58.4899 6.35872 58.7118 5.73979 59.0077 5.15034C59.3183 4.54615 59.7103 3.98617 60.1837 3.4704C60.657 2.93989 61.2117 2.46833 61.8478 2.05572C62.4987 1.62836 63.2457 1.25995 64.0889 0.950492C64.932 0.64103 65.8713 0.405249 66.9068 0.243149C67.9571 0.0810496 69.1109 0 70.3682 0ZM72.9865 17.2415C72.9865 16.3868 72.9865 15.5394 72.9865 14.6995C72.9865 13.8595 72.9865 13.0195 72.9865 12.1796C72.9865 11.3249 72.9865 10.4775 72.9865 9.63755C74.0367 9.63755 75.0796 9.63755 76.1151 9.63755C77.1653 9.63755 78.2156 9.63755 79.2659 9.63755C80.3161 9.63755 81.359 9.63755 82.3944 9.63755V17.2415H72.9865Z" fill="#011613"/>
<path d="M95.7277 0.663134H104.936C104.936 1.59152 104.936 2.51991 104.936 3.4483C104.936 4.37669 104.936 5.30507 104.936 6.23346C104.936 7.16185 104.936 8.09761 104.936 9.04073C104.936 10.3965 104.936 11.7596 104.936 13.1301C104.936 14.5005 104.936 15.871 104.936 17.2415H95.7277C95.7277 16.3426 95.7277 15.4437 95.7277 14.5447C95.7277 13.6458 95.7277 12.7469 95.7277 11.848C95.7277 11.8333 95.7203 11.8259 95.7055 11.8259C95.7055 11.8112 95.6981 11.8038 95.6833 11.8038H92.6435C92.6287 11.8038 92.6213 11.8112 92.6213 11.8259C92.6213 11.8259 92.6213 11.8333 92.6213 11.848C92.6213 12.7469 92.6213 13.6458 92.6213 14.5447C92.6213 15.4437 92.6213 16.3426 92.6213 17.2415H83.413C83.413 16.3573 83.413 15.4731 83.413 14.589C83.413 13.7048 83.413 12.8206 83.413 11.9364C83.413 11.0522 83.413 10.1681 83.413 9.28388C83.413 8.3997 83.413 7.51552 83.413 6.63134C83.413 5.74716 83.413 4.86298 83.413 3.97881C83.413 3.41883 83.413 2.86621 83.413 2.32097C83.413 1.76099 83.413 1.20838 83.413 0.663134H92.6213C92.6213 1.37048 92.6213 2.08519 92.6213 2.80727C92.6213 3.52935 92.6213 4.25143 92.6213 4.97351C92.6213 5.68085 92.6213 6.39556 92.6213 7.11764C92.6213 7.13238 92.6213 7.14711 92.6213 7.16185C92.6213 7.16185 92.6287 7.16185 92.6435 7.16185H95.6833C95.6981 7.16185 95.7055 7.16185 95.7055 7.16185C95.7203 7.14711 95.7277 7.13238 95.7277 7.11764C95.7277 6.04189 95.7277 4.96614 95.7277 3.89039C95.7277 2.81464 95.7277 1.73888 95.7277 0.663134Z" fill="#011613"/>
<path d="M125.655 0.663134V7.38289H120.307C120.307 7.38289 120.3 7.39026 120.285 7.405C120.285 7.405 120.278 7.405 120.263 7.405C120.263 7.405 120.263 7.41237 120.263 7.4271C120.263 8.0755 120.263 8.73127 120.263 9.3944C120.263 10.0428 120.263 10.6986 120.263 11.3617C120.263 12.0101 120.263 12.6659 120.263 13.329C120.263 13.9774 120.263 14.6332 120.263 15.2963C120.263 15.9447 120.263 16.5931 120.263 17.2415H111.055C111.055 16.151 111.055 15.0605 111.055 13.97C111.055 12.8795 111.055 11.7891 111.055 10.6986C111.055 9.60808 111.055 8.51759 111.055 7.4271C111.055 7.41237 111.047 7.405 111.033 7.405C111.033 7.39026 111.025 7.38289 111.01 7.38289H105.663V0.663134H125.655Z" fill="#011613"/>
<path d="M138.472 0C141.194 0 143.457 0.383144 145.262 1.14943C147.066 1.91572 148.42 2.96937 149.322 4.31037C150.225 5.65138 150.676 7.19132 150.676 8.93021C150.676 9.87333 150.535 10.787 150.254 11.6712C149.973 12.5406 149.529 13.3585 148.923 14.1248C148.316 14.8763 147.532 15.5394 146.571 16.1142C145.609 16.6741 144.455 17.1089 143.109 17.4183C141.778 17.7425 140.232 17.9046 138.472 17.9046C137.215 17.9046 136.061 17.8162 135.011 17.6394C133.975 17.4773 133.036 17.2489 132.193 16.9541C131.349 16.6447 130.602 16.2763 129.952 15.8489C129.315 15.4216 128.761 14.95 128.287 14.4342C127.829 13.9037 127.444 13.3437 127.134 12.7543C126.838 12.1648 126.616 11.5459 126.468 10.8975C126.335 10.2491 126.268 9.59334 126.268 8.93021C126.268 8.06076 126.379 7.23553 126.601 6.45451C126.838 5.67348 127.178 4.9514 127.622 4.28827C128.08 3.62513 128.642 3.03568 129.308 2.51991C129.989 1.9894 130.78 1.53994 131.682 1.17154C132.585 0.788393 133.598 0.501035 134.722 0.309463C135.861 0.103154 137.111 0 138.472 0ZM138.494 7.02922C137.976 7.02922 137.533 7.08817 137.163 7.20606C136.808 7.30921 136.519 7.45658 136.297 7.64815C136.09 7.82498 135.935 8.03129 135.832 8.26707C135.743 8.48812 135.698 8.71653 135.698 8.95231C135.698 9.26177 135.787 9.56387 135.965 9.85859C136.142 10.1533 136.438 10.3965 136.852 10.588C137.266 10.7796 137.814 10.8754 138.494 10.8754C138.894 10.8754 139.241 10.8386 139.537 10.7649C139.848 10.6912 140.107 10.5954 140.314 10.4775C140.535 10.3449 140.713 10.1975 140.846 10.0354C140.994 9.85859 141.098 9.68176 141.157 9.50492C141.216 9.31335 141.246 9.12178 141.246 8.93021C141.246 8.70916 141.194 8.48812 141.09 8.26707C141.001 8.04603 140.854 7.84709 140.646 7.67025C140.439 7.47868 140.158 7.32395 139.803 7.20606C139.448 7.08817 139.012 7.02922 138.494 7.02922Z" fill="#011613"/>
<path d="M164.457 0.663134H173C173 1.20838 173 1.76099 173 2.32097C173 2.86621 173 3.41883 173 3.97881C173 4.52405 173 5.07666 173 5.63664C173 6.18188 173 6.7345 173 7.29448C173 7.83972 173 8.39233 173 8.95231C173 10.3375 173 11.7227 173 13.108C173 14.4784 173 15.8563 173 17.2415H162.727L159.931 9.28388C159.931 9.26914 159.924 9.26177 159.909 9.26177C159.909 9.26177 159.901 9.26177 159.887 9.26177C159.887 9.26177 159.887 9.26914 159.887 9.28388C159.887 10.5807 159.887 11.9069 159.887 13.2627C159.887 14.6184 159.887 15.9447 159.887 17.2415H151.344C151.344 16.1363 151.344 15.031 151.344 13.9258C151.344 12.8206 151.344 11.7154 151.344 10.6101C151.344 9.50492 151.344 8.3997 151.344 7.29448C151.344 6.18925 151.344 5.08403 151.344 3.97881C151.344 2.87358 151.344 1.76836 151.344 0.663134H161.284L164.413 9.83649C164.428 9.83649 164.435 9.83649 164.435 9.83649C164.45 9.83649 164.457 9.83649 164.457 9.83649C164.457 9.82175 164.457 9.81439 164.457 9.81439V0.663134Z" fill="#011613"/>
<path d="M22.3147 22.7676H31.5229C31.5229 23.696 31.5229 24.6244 31.5229 25.5528C31.5229 26.4812 31.5229 27.4095 31.5229 28.3379C31.5229 29.2663 31.5229 30.2021 31.5229 31.1452C31.5229 32.5009 31.5229 33.8641 31.5229 35.2345C31.5229 36.605 31.5229 37.9755 31.5229 39.346H22.3147C22.3147 38.447 22.3147 37.5481 22.3147 36.6492C22.3147 35.7503 22.3147 34.8514 22.3147 33.9525C22.3147 33.9377 22.3073 33.9304 22.2925 33.9304C22.2925 33.9156 22.2851 33.9083 22.2703 33.9083H19.2305C19.2157 33.9083 19.2083 33.9156 19.2083 33.9304C19.2083 33.9304 19.2083 33.9377 19.2083 33.9525C19.2083 34.8514 19.2083 35.7503 19.2083 36.6492C19.2083 37.5481 19.2083 38.447 19.2083 39.346H10C10 38.4618 10 37.5776 10 36.6934C10 35.8092 10 34.9251 10 34.0409C10 33.1567 10 32.2725 10 31.3884C10 30.5042 10 29.62 10 28.7358C10 27.8516 10 26.9675 10 26.0833C10 25.5233 10 24.9707 10 24.4254C10 23.8655 10 23.3129 10 22.7676H19.2083C19.2083 23.475 19.2083 24.1897 19.2083 24.9117C19.2083 25.6338 19.2083 26.3559 19.2083 27.078C19.2083 27.7853 19.2083 28.5 19.2083 29.2221C19.2083 29.2368 19.2083 29.2516 19.2083 29.2663C19.2083 29.2663 19.2157 29.2663 19.2305 29.2663H22.2703C22.2851 29.2663 22.2925 29.2663 22.2925 29.2663C22.3073 29.2516 22.3147 29.2368 22.3147 29.2221C22.3147 28.1464 22.3147 27.0706 22.3147 25.9949C22.3147 24.9191 22.3147 23.8434 22.3147 22.7676Z" fill="#011613"/>
<path d="M32.4053 22.7676H41.6135C41.6135 24.3739 41.6135 25.877 41.6135 27.2769C41.6135 28.6769 41.6135 30.0768 41.6135 31.4768C41.6135 31.6978 41.6579 31.8894 41.7467 32.0515C41.8502 32.2136 41.976 32.3536 42.1239 32.4715C42.2866 32.5746 42.4641 32.6557 42.6564 32.7146C42.8635 32.7736 43.0706 32.803 43.2777 32.803C43.7067 32.803 44.0913 32.6925 44.4315 32.4715C44.7717 32.2504 44.9418 31.9262 44.9418 31.4989C44.9418 30.7915 44.9418 30.0916 44.9418 29.3989C44.9418 28.7063 44.9418 28.0064 44.9418 27.299C44.9418 26.5917 44.9418 25.8622 44.9418 25.1107C44.9418 24.3591 44.9418 23.5781 44.9418 22.7676H54.1501C54.1501 23.8876 54.1501 25.037 54.1501 26.2159C54.1501 27.3948 54.1501 28.5811 54.1501 29.7747C54.1501 30.9536 54.1501 32.1031 54.1501 33.223C54.1501 34.3577 53.8395 35.3524 53.2182 36.2071C52.6117 37.0471 51.7907 37.7544 50.7552 38.3292C49.7198 38.8891 48.5512 39.3091 47.2494 39.5891C45.9625 39.8691 44.6386 40.0091 43.2777 40.0091C42.1978 40.0091 41.1254 39.9207 40.0603 39.7438C39.0101 39.567 38.019 39.2944 37.0871 38.926C36.1699 38.5576 35.3564 38.1081 34.6463 37.5776C33.9511 37.0324 33.4038 36.3987 33.0044 35.6766C32.605 34.9398 32.4053 34.1219 32.4053 33.223C32.4053 32.663 32.4053 32.0883 32.4053 31.4989C32.4053 30.8947 32.4053 30.2979 32.4053 29.7084C32.4053 28.9274 32.4053 28.1464 32.4053 27.3653C32.4053 26.5843 32.4053 25.8107 32.4053 25.0444C32.4053 24.2633 32.4053 23.5044 32.4053 22.7676Z" fill="#011613"/>
<path d="M64.2355 32.803C64.2355 32.8178 64.2355 32.8325 64.2355 32.8472C64.2503 32.8472 64.2651 32.8472 64.2799 32.8472H72.9334V39.346H55.0272C55.0272 38.4323 55.0272 37.5187 55.0272 36.605C55.0272 35.6914 55.0272 34.7777 55.0272 33.8641C55.0272 32.9357 55.0272 32.0146 55.0272 31.101C55.0272 30.1873 55.0272 29.2737 55.0272 28.36C55.0272 27.4317 55.0272 26.5033 55.0272 25.5749C55.0272 24.6318 55.0272 23.696 55.0272 22.7676H64.2355C64.2355 23.6076 64.2355 24.4475 64.2355 25.2875C64.2355 26.1127 64.2355 26.9454 64.2355 27.7853C64.2355 28.6253 64.2355 29.4653 64.2355 30.3052C64.2355 31.1305 64.2355 31.9631 64.2355 32.803Z" fill="#011613"/>
<path d="M82.8705 32.803C82.8705 32.8178 82.8705 32.8325 82.8705 32.8472C82.8853 32.8472 82.9 32.8472 82.9148 32.8472H91.5684V39.346H73.6622C73.6622 38.4323 73.6622 37.5187 73.6622 36.605C73.6622 35.6914 73.6622 34.7777 73.6622 33.8641C73.6622 32.9357 73.6622 32.0146 73.6622 31.101C73.6622 30.1873 73.6622 29.2737 73.6622 28.36C73.6622 27.4317 73.6622 26.5033 73.6622 25.5749C73.6622 24.6318 73.6622 23.696 73.6622 22.7676H82.8705C82.8705 23.6076 82.8705 24.4475 82.8705 25.2875C82.8705 26.1127 82.8705 26.9454 82.8705 27.7853C82.8705 28.6253 82.8705 29.4653 82.8705 30.3052C82.8705 31.1305 82.8705 31.9631 82.8705 32.803Z" fill="#011613"/>
<rect y="0.00454712" width="4" height="40" fill="#184B44"/>
</svg>
