<svg width="173" height="40" viewBox="0 0 173 40" fill="none" xmlns="http://www.w3.org/2000/svg">
<path d="M19.2083 10.6961C19.2083 10.7109 19.2083 10.7256 19.2083 10.7403C19.2231 10.7403 19.2379 10.7403 19.2526 10.7403H27.9062V17.2376H10C10 16.3241 10 15.4107 10 14.4972C10 13.5838 10 12.6704 10 11.7569C10 10.8287 10 9.90792 10 8.99448C10 8.08103 10 7.16759 10 6.25414C10 5.32597 10 4.39779 10 3.46961C10 2.5267 10 1.59116 10 0.662983H19.2083C19.2083 1.50276 19.2083 2.34254 19.2083 3.18232C19.2083 4.00737 19.2083 4.83978 19.2083 5.67956C19.2083 6.51934 19.2083 7.35912 19.2083 8.1989C19.2083 9.02394 19.2083 9.85635 19.2083 10.6961Z" fill="white"/>
<path d="M47.2956 6.23204H37.6435C37.6287 6.23204 37.6213 6.23204 37.6213 6.23204V7.44751C37.6213 7.46225 37.6213 7.47698 37.6213 7.49171C37.6361 7.49171 37.6435 7.49171 37.6435 7.49171H46.9627V10.6077H37.6435C37.6435 10.6077 37.6361 10.6077 37.6213 10.6077C37.6213 10.6077 37.6213 10.6151 37.6213 10.6298C37.6213 10.6298 37.6213 10.6372 37.6213 10.6519V11.8895C37.6361 11.8895 37.6435 11.8895 37.6435 11.8895H47.4287V17.2376H28.635C28.635 16.3683 28.635 15.4991 28.635 14.6298C28.635 13.7459 28.635 12.8692 28.635 12C28.635 11.1308 28.635 10.2615 28.635 9.39227C28.635 8.50829 28.635 7.63168 28.635 6.76243C28.635 5.87845 28.635 5.00184 28.635 4.1326C28.635 3.55801 28.635 2.98343 28.635 2.40884C28.635 1.81952 28.635 1.23757 28.635 0.662983H47.2956V6.23204Z" fill="white"/>
<path d="M48.2667 17.2376C48.2667 16.1768 48.2667 15.116 48.2667 14.0552C48.2667 12.9945 48.2667 11.9337 48.2667 10.8729C48.2667 9.81215 48.2667 8.75138 48.2667 7.69061C48.2667 6.62983 48.2667 5.56906 48.2667 4.50829C48.2667 3.86004 48.2667 3.21915 48.2667 2.58563C48.2667 1.93738 48.2667 1.2965 48.2667 0.662983H57.4749C57.4749 2.09208 57.4749 3.52118 57.4749 4.95028C57.4749 6.36464 57.4749 7.78637 57.4749 9.21547C57.4749 10.0994 57.4749 10.9908 57.4749 11.8895C57.4749 12.7735 57.4749 13.6648 57.4749 14.5635C57.4749 15.4475 57.4749 16.3389 57.4749 17.2376H48.2667Z" fill="white"/>
<path d="M70.3682 0C73.0013 0 75.1758 0.324125 76.8917 0.972375C78.6076 1.62063 79.9241 2.5046 80.8412 3.62431C81.7584 4.72928 82.3353 5.98158 82.572 7.38122L72.9865 9.63536C73.1492 9.07551 73.1566 8.58932 73.0087 8.1768C72.8607 7.76427 72.5649 7.44015 72.1211 7.20442C71.6773 6.96869 71.0857 6.85083 70.346 6.85083C69.6508 6.85083 69.0961 6.94659 68.6819 7.13812C68.2825 7.32965 67.994 7.57274 67.8165 7.8674C67.6538 8.14733 67.5725 8.44936 67.5725 8.77348C67.5725 9.00921 67.6242 9.23757 67.7278 9.45856C67.8313 9.66483 67.994 9.85635 68.2159 10.0331C68.4378 10.2099 68.7263 10.3499 69.0813 10.453C69.4363 10.5562 69.8579 10.6077 70.346 10.6077C71.1004 10.6077 71.6847 10.5267 72.0989 10.3646C72.5131 10.1878 72.809 9.94475 72.9865 9.63536C72.7498 10.5046 72.5131 11.3812 72.2764 12.2652C72.0398 13.1492 71.7957 14.0405 71.5442 14.9392C71.3075 15.8232 71.0709 16.6998 70.8342 17.5691C70.4348 17.6427 70.0428 17.6943 69.6582 17.7238C69.2884 17.768 68.8446 17.7901 68.3269 17.7901C67.2027 17.7901 66.1672 17.6869 65.2205 17.4807C64.2886 17.2744 63.4454 16.9871 62.691 16.6188C61.9366 16.2357 61.2709 15.779 60.694 15.2486C60.1319 14.7182 59.6585 14.1289 59.2739 13.4807C58.9041 12.8177 58.6231 12.1105 58.4308 11.3591C58.2385 10.593 58.1423 9.79742 58.1423 8.97238C58.1423 8.29466 58.2089 7.63904 58.342 7.00553C58.4899 6.35727 58.7118 5.73849 59.0077 5.14917C59.3183 4.54512 59.7103 3.98527 60.1837 3.46961C60.657 2.93923 61.2117 2.46777 61.8478 2.05525C62.4987 1.62799 63.2457 1.25967 64.0889 0.950276C64.932 0.640884 65.8713 0.405157 66.9068 0.243093C67.9571 0.0810311 69.1109 0 70.3682 0ZM72.9865 17.2376C72.9865 16.3831 72.9865 15.5359 72.9865 14.6961C72.9865 13.8564 72.9865 13.0166 72.9865 12.1768C72.9865 11.3223 72.9865 10.4751 72.9865 9.63536C74.0367 9.63536 75.0796 9.63536 76.1151 9.63536C77.1653 9.63536 78.2156 9.63536 79.2659 9.63536C80.3161 9.63536 81.359 9.63536 82.3944 9.63536V17.2376H72.9865Z" fill="white"/>
<path d="M95.7277 0.662983H104.936C104.936 1.59116 104.936 2.51934 104.936 3.44751C104.936 4.37569 104.936 5.30387 104.936 6.23204C104.936 7.16022 104.936 8.09576 104.936 9.03867C104.936 10.3941 104.936 11.7569 104.936 13.1271C104.936 14.4972 104.936 15.8674 104.936 17.2376H95.7277C95.7277 16.3389 95.7277 15.4401 95.7277 14.5414C95.7277 13.6427 95.7277 12.744 95.7277 11.8453C95.7277 11.8306 95.7203 11.8232 95.7055 11.8232C95.7055 11.8085 95.6981 11.8011 95.6833 11.8011H92.6435C92.6287 11.8011 92.6213 11.8085 92.6213 11.8232C92.6213 11.8232 92.6213 11.8306 92.6213 11.8453C92.6213 12.744 92.6213 13.6427 92.6213 14.5414C92.6213 15.4401 92.6213 16.3389 92.6213 17.2376H83.413C83.413 16.3536 83.413 15.4696 83.413 14.5856C83.413 13.7017 83.413 12.8177 83.413 11.9337C83.413 11.0497 83.413 10.1657 83.413 9.28177C83.413 8.39779 83.413 7.51381 83.413 6.62983C83.413 5.74586 83.413 4.86188 83.413 3.9779C83.413 3.41805 83.413 2.86556 83.413 2.32044C83.413 1.76059 83.413 1.2081 83.413 0.662983H92.6213C92.6213 1.37017 92.6213 2.08471 92.6213 2.80663C92.6213 3.52854 92.6213 4.25046 92.6213 4.97238C92.6213 5.67956 92.6213 6.39411 92.6213 7.11602C92.6213 7.13076 92.6213 7.14549 92.6213 7.16022C92.6213 7.16022 92.6287 7.16022 92.6435 7.16022H95.6833C95.6981 7.16022 95.7055 7.16022 95.7055 7.16022C95.7203 7.14549 95.7277 7.13076 95.7277 7.11602C95.7277 6.04052 95.7277 4.96501 95.7277 3.8895C95.7277 2.814 95.7277 1.73849 95.7277 0.662983Z" fill="white"/>
<path d="M125.655 0.662983V7.38122H120.307C120.307 7.38122 120.3 7.38858 120.285 7.40332C120.285 7.40332 120.278 7.40332 120.263 7.40332C120.263 7.40332 120.263 7.41068 120.263 7.42541C120.263 8.07367 120.263 8.72928 120.263 9.39227C120.263 10.0405 120.263 10.6961 120.263 11.3591C120.263 12.0074 120.263 12.663 120.263 13.326C120.263 13.9742 120.263 14.6298 120.263 15.2928C120.263 15.9411 120.263 16.5893 120.263 17.2376H111.055C111.055 16.1473 111.055 15.0571 111.055 13.9669C111.055 12.8766 111.055 11.7864 111.055 10.6961C111.055 9.60589 111.055 8.51565 111.055 7.42541C111.055 7.41068 111.047 7.40332 111.033 7.40332C111.033 7.38858 111.025 7.38122 111.01 7.38122H105.663V0.662983H125.655Z" fill="white"/>
<path d="M138.472 0C141.194 0 143.457 0.383057 145.262 1.14917C147.066 1.91528 148.42 2.96869 149.322 4.30939C150.225 5.65009 150.676 7.18969 150.676 8.92818C150.676 9.87109 150.535 10.7845 150.254 11.6685C149.973 12.5378 149.529 13.3554 148.923 14.1215C148.316 14.8729 147.532 15.5359 146.571 16.1105C145.609 16.6704 144.455 17.105 143.109 17.4144C141.778 17.7385 140.232 17.9006 138.472 17.9006C137.215 17.9006 136.061 17.8122 135.011 17.6354C133.975 17.4733 133.036 17.2449 132.193 16.9503C131.349 16.6409 130.602 16.2726 129.952 15.8453C129.315 15.418 128.761 14.9466 128.287 14.4309C127.829 13.9006 127.444 13.3407 127.134 12.7514C126.838 12.1621 126.616 11.5433 126.468 10.895C126.335 10.2468 126.268 9.59116 126.268 8.92818C126.268 8.05893 126.379 7.23389 126.601 6.45304C126.838 5.67219 127.178 4.95028 127.622 4.28729C128.08 3.62431 128.642 3.03499 129.308 2.51934C129.989 1.98895 130.78 1.53959 131.682 1.17127C132.585 0.788214 133.598 0.500921 134.722 0.309392C135.861 0.103131 137.111 0 138.472 0ZM138.494 7.02763C137.976 7.02763 137.533 7.08656 137.163 7.20442C136.808 7.30755 136.519 7.45488 136.297 7.64641C136.09 7.8232 135.935 8.02947 135.832 8.26519C135.743 8.48619 135.698 8.71455 135.698 8.95028C135.698 9.25967 135.787 9.5617 135.965 9.85635C136.142 10.151 136.438 10.3941 136.852 10.5856C137.266 10.7772 137.814 10.8729 138.494 10.8729C138.894 10.8729 139.241 10.8361 139.537 10.7624C139.848 10.6888 140.107 10.593 140.314 10.4751C140.535 10.3425 140.713 10.1952 140.846 10.0331C140.994 9.85635 141.098 9.67956 141.157 9.50276C141.216 9.31123 141.246 9.11971 141.246 8.92818C141.246 8.70718 141.194 8.48619 141.09 8.26519C141.001 8.0442 140.854 7.8453 140.646 7.66851C140.439 7.47698 140.158 7.32228 139.803 7.20442C139.448 7.08656 139.012 7.02763 138.494 7.02763Z" fill="white"/>
<path d="M164.457 0.662983H173C173 1.2081 173 1.76059 173 2.32044C173 2.86556 173 3.41805 173 3.9779C173 4.52302 173 5.07551 173 5.63536C173 6.18048 173 6.73297 173 7.29282C173 7.83794 173 8.39042 173 8.95028C173 10.3352 173 11.7201 173 13.105C173 14.4751 173 15.8527 173 17.2376H162.727L159.931 9.28177C159.931 9.26704 159.924 9.25967 159.909 9.25967C159.909 9.25967 159.901 9.25967 159.887 9.25967C159.887 9.25967 159.887 9.26704 159.887 9.28177C159.887 10.5783 159.887 11.9042 159.887 13.2597C159.887 14.6151 159.887 15.9411 159.887 17.2376H151.344C151.344 16.1326 151.344 15.0276 151.344 13.9227C151.344 12.8177 151.344 11.7127 151.344 10.6077C151.344 9.50276 151.344 8.39779 151.344 7.29282C151.344 6.18785 151.344 5.08287 151.344 3.9779C151.344 2.87293 151.344 1.76796 151.344 0.662983H161.284L164.413 9.83425C164.428 9.83425 164.435 9.83425 164.435 9.83425C164.45 9.83425 164.457 9.83425 164.457 9.83425C164.457 9.81952 164.457 9.81215 164.457 9.81215V0.662983Z" fill="white"/>
<path d="M22.3147 22.7624H31.5229C31.5229 23.6906 31.5229 24.6188 31.5229 25.547C31.5229 26.4751 31.5229 27.4033 31.5229 28.3315C31.5229 29.2597 31.5229 30.1952 31.5229 31.1381C31.5229 32.4936 31.5229 33.8564 31.5229 35.2265C31.5229 36.5967 31.5229 37.9669 31.5229 39.337H22.3147C22.3147 38.4383 22.3147 37.5396 22.3147 36.6409C22.3147 35.7422 22.3147 34.8435 22.3147 33.9448C22.3147 33.93 22.3073 33.9227 22.2925 33.9227C22.2925 33.9079 22.2851 33.9006 22.2703 33.9006H19.2305C19.2157 33.9006 19.2083 33.9079 19.2083 33.9227C19.2083 33.9227 19.2083 33.93 19.2083 33.9448C19.2083 34.8435 19.2083 35.7422 19.2083 36.6409C19.2083 37.5396 19.2083 38.4383 19.2083 39.337H10C10 38.453 10 37.5691 10 36.6851C10 35.8011 10 34.9171 10 34.0331C10 33.1492 10 32.2652 10 31.3812C10 30.4972 10 29.6133 10 28.7293C10 27.8453 10 26.9613 10 26.0773C10 25.5175 10 24.965 10 24.4199C10 23.86 10 23.3076 10 22.7624H19.2083C19.2083 23.4696 19.2083 24.1842 19.2083 24.9061C19.2083 25.628 19.2083 26.3499 19.2083 27.0718C19.2083 27.779 19.2083 28.4936 19.2083 29.2155C19.2083 29.2302 19.2083 29.2449 19.2083 29.2597C19.2083 29.2597 19.2157 29.2597 19.2305 29.2597H22.2703C22.2851 29.2597 22.2925 29.2597 22.2925 29.2597C22.3073 29.2449 22.3147 29.2302 22.3147 29.2155C22.3147 28.14 22.3147 27.0645 22.3147 25.9889C22.3147 24.9134 22.3147 23.8379 22.3147 22.7624Z" fill="white"/>
<path d="M32.4053 22.7624H41.6135C41.6135 24.3683 41.6135 25.8711 41.6135 27.2707C41.6135 28.6704 41.6135 30.07 41.6135 31.4696C41.6135 31.6906 41.6579 31.8821 41.7467 32.0442C41.8502 32.2063 41.976 32.3462 42.1239 32.4641C42.2866 32.5672 42.4641 32.6483 42.6564 32.7072C42.8635 32.7661 43.0706 32.7956 43.2777 32.7956C43.7067 32.7956 44.0913 32.6851 44.4315 32.4641C44.7717 32.2431 44.9418 31.919 44.9418 31.4917C44.9418 30.7845 44.9418 30.0847 44.9418 29.3923C44.9418 28.6998 44.9418 28 44.9418 27.2928C44.9418 26.5856 44.9418 25.8564 44.9418 25.105C44.9418 24.3536 44.9418 23.5727 44.9418 22.7624H54.1501C54.1501 23.8821 54.1501 25.0313 54.1501 26.2099C54.1501 27.3886 54.1501 28.5746 54.1501 29.768C54.1501 30.9466 54.1501 32.0958 54.1501 33.2155C54.1501 34.3499 53.8395 35.3444 53.2182 36.1989C52.6117 37.0387 51.7907 37.7459 50.7552 38.3204C49.7198 38.8803 48.5512 39.3002 47.2494 39.5801C45.9625 39.86 44.6386 40 43.2777 40C42.1978 40 41.1254 39.9116 40.0603 39.7348C39.0101 39.558 38.019 39.2855 37.0871 38.9171C36.1699 38.5488 35.3564 38.0994 34.6463 37.5691C33.9511 37.0239 33.4038 36.3904 33.0044 35.6685C32.605 34.9319 32.4053 34.1142 32.4053 33.2155C32.4053 32.6556 32.4053 32.081 32.4053 31.4917C32.4053 30.8877 32.4053 30.291 32.4053 29.7017C32.4053 28.9208 32.4053 28.14 32.4053 27.3591C32.4053 26.5783 32.4053 25.8048 32.4053 25.0387C32.4053 24.2578 32.4053 23.4991 32.4053 22.7624Z" fill="white"/>
<path d="M64.2355 32.7956C64.2355 32.8103 64.2355 32.825 64.2355 32.8398C64.2503 32.8398 64.2651 32.8398 64.2799 32.8398H72.9334V39.337H55.0272C55.0272 38.4236 55.0272 37.5101 55.0272 36.5967C55.0272 35.6832 55.0272 34.7698 55.0272 33.8564C55.0272 32.9282 55.0272 32.0074 55.0272 31.0939C55.0272 30.1805 55.0272 29.267 55.0272 28.3536C55.0272 27.4254 55.0272 26.4972 55.0272 25.5691C55.0272 24.6262 55.0272 23.6906 55.0272 22.7624H64.2355C64.2355 23.6022 64.2355 24.442 64.2355 25.2818C64.2355 26.1068 64.2355 26.9392 64.2355 27.779C64.2355 28.6188 64.2355 29.4586 64.2355 30.2983C64.2355 31.1234 64.2355 31.9558 64.2355 32.7956Z" fill="white"/>
<path d="M82.8705 32.7956C82.8705 32.8103 82.8705 32.825 82.8705 32.8398C82.8853 32.8398 82.9 32.8398 82.9148 32.8398H91.5684V39.337H73.6622C73.6622 38.4236 73.6622 37.5101 73.6622 36.5967C73.6622 35.6832 73.6622 34.7698 73.6622 33.8564C73.6622 32.9282 73.6622 32.0074 73.6622 31.0939C73.6622 30.1805 73.6622 29.267 73.6622 28.3536C73.6622 27.4254 73.6622 26.4972 73.6622 25.5691C73.6622 24.6262 73.6622 23.6906 73.6622 22.7624H82.8705C82.8705 23.6022 82.8705 24.442 82.8705 25.2818C82.8705 26.1068 82.8705 26.9392 82.8705 27.779C82.8705 28.6188 82.8705 29.4586 82.8705 30.2983C82.8705 31.1234 82.8705 31.9558 82.8705 32.7956Z" fill="white"/>
<rect width="4" height="40" fill="white"/>
</svg>
