<svg width="24" height="24" viewBox="0 0 24 24" fill="none" xmlns="http://www.w3.org/2000/svg">
<path d="M18.0088 16.7508C17.8488 16.7508 17.6988 16.7008 17.5588 16.6008C17.2288 16.3508 17.1588 15.8808 17.4088 15.5508C18.9788 13.4608 18.9788 10.5408 17.4088 8.45076C17.1588 8.12076 17.2288 7.65076 17.5588 7.40076C17.8888 7.15076 18.3588 7.22076 18.6088 7.55076C20.5688 10.1708 20.5688 13.8308 18.6088 16.4508C18.4588 16.6508 18.2388 16.7508 18.0088 16.7508Z" fill="#3A3C3C"/>
<path d="M19.8388 19.2508C19.6788 19.2508 19.5288 19.2008 19.3888 19.1008C19.0588 18.8508 18.9888 18.3808 19.2388 18.0508C21.9088 14.4908 21.9088 9.51076 19.2388 5.95076C18.9888 5.62076 19.0588 5.15076 19.3888 4.90076C19.7188 4.65076 20.1888 4.72076 20.4388 5.05076C23.5088 9.14076 23.5088 14.8608 20.4388 18.9508C20.2988 19.1508 20.0688 19.2508 19.8388 19.2508Z" fill="#3A3C3C"/>
<path d="M14.0288 3.78076C12.9088 3.16076 11.4788 3.32076 10.0188 4.23076L7.09879 6.06076C6.89879 6.18076 6.66879 6.25076 6.43879 6.25076H5.00879C2.58879 6.25076 1.25879 7.58076 1.25879 10.0008V14.0008C1.25879 16.4208 2.58879 17.7508 5.00879 17.7508H6.43879C6.66879 17.7508 6.89879 17.8208 7.09879 17.9408L10.0188 19.7708C10.8988 20.3208 11.7588 20.5908 12.5588 20.5908C13.0788 20.5908 13.5788 20.4708 14.0288 20.2208C15.1388 19.6008 15.7588 18.3108 15.7588 16.5908V7.41076C15.7588 5.69076 15.1388 4.40076 14.0288 3.78076Z" fill="#3A3C3C"/>
</svg>
