<svg width="24" height="24" viewBox="0 0 24 24" fill="none" xmlns="http://www.w3.org/2000/svg">
<path d="M18.0044 16.7475C17.8444 16.7475 17.6944 16.6975 17.5544 16.5975C17.2244 16.3475 17.1544 15.8775 17.4044 15.5475C18.6644 13.8675 18.9344 11.6375 18.1244 9.7075C17.9644 9.3275 18.1444 8.8875 18.5244 8.7275C18.9044 8.5675 19.3444 8.7475 19.5044 9.1275C20.5244 11.5475 20.1744 14.3575 18.6044 16.4575C18.4544 16.6475 18.2344 16.7475 18.0044 16.7475Z" fill="white"/>
<path d="M19.8344 19.2475C19.6744 19.2475 19.5244 19.1975 19.3844 19.0975C19.0544 18.8475 18.9844 18.3775 19.2344 18.0475C21.3744 15.1975 21.8444 11.3775 20.4644 8.0875C20.3044 7.7075 20.4844 7.2675 20.8644 7.1075C21.2444 6.9475 21.6844 7.1275 21.8444 7.5075C23.4344 11.2875 22.8944 15.6675 20.4344 18.9475C20.2944 19.1475 20.0644 19.2475 19.8344 19.2475Z" fill="white"/>
<path d="M14.0444 12.9575C14.6744 12.3275 15.7544 12.7775 15.7544 13.6675V16.5975C15.7544 18.3175 15.1344 19.6075 14.0244 20.2275C13.5744 20.4775 13.0744 20.5975 12.5544 20.5975C11.7544 20.5975 10.8944 20.3275 10.0144 19.7775L9.37439 19.3775C8.83439 19.0375 8.74439 18.2775 9.19439 17.8275L14.0444 12.9575Z" fill="white"/>
<path d="M21.7744 2.2275C21.4744 1.9275 20.9844 1.9275 20.6844 2.2275L15.7344 7.1775C15.6744 5.5775 15.0744 4.3775 14.0144 3.7875C12.8944 3.1675 11.4644 3.3275 10.0044 4.2375L7.09439 6.0575C6.89439 6.1775 6.66439 6.2475 6.43439 6.2475H5.00439C2.58439 6.2475 1.25439 7.5775 1.25439 9.9975V13.9975C1.25439 16.4175 2.58439 17.7475 5.00439 17.7475H5.16439L2.22439 20.6875C1.92439 20.9875 1.92439 21.4775 2.22439 21.7775C2.38439 21.9175 2.57439 21.9975 2.77439 21.9975C2.97439 21.9975 3.16439 21.9175 3.31439 21.7675L21.7744 3.3075C22.0844 3.0075 22.0844 2.5275 21.7744 2.2275Z" fill="white"/>
</svg>
